<svg xmlns="http://www.w3.org/2000/svg" height="100%" width="100%" id='sfmap' viewBox="0 0 200 200">
    <style type="text/css" >
      <![CDATA[
         circle {
            stroke: #006600;
            fill:   #00cc00;
         }
         svg, embed {
            width: 800px;
            height: 800px;
         }

         path {
            fill: #ccc;
            stroke: #000;
            stroke-width:.25;
         }
         
         path:hover, path.sel {
            fill: #eee;
            stroke: #000;
         }

         text {
            font-family: "Helvetica Neue",Helvetica,Arial,san-serif;
            font-size: 16px;
         }



      ]]>
   </style>
<path d="M155.8016371627196,31.498310954402537L155.45878576559642,31.826759015711144L155.90882667169944,32.358015910726685L155.78595763402004,32.53570913332277L159.34944107383672,36.42722953386574L159.20689186934328,36.56369068032845L159.5956258202385,37.46930277422395L160.25933679625757,37.19942845143482L159.89188418351128,37.491414266201346L160.07642902880906,37.97039530063657L162.99295911527804,36.511664289812735L163.43079185198604,37.13331147362215L160.8583427732434,38.27786619883861L161.22738420008596,39.05658109250638L163.668445836751,38.27689777853466L163.89370020107393,39.109587219553994L161.36903941115884,39.913096843470726L161.54389403910127,40.78863591277566L163.72081194493916,40.34056241211276L163.8746895649378,40.944860411892776L161.10408273032112,41.612036500588374L161.0735979243574,42.3528153637392L164.6569372555651,42.085075681294555L164.8521619130153,44.795868503008606L160.87539136033723,45.18271280855741L160.78594237064195,46.064685436847896L163.37244638943824,45.9368999517345L163.4844847980257,46.40955623794458L160.9988504739101,46.75621006460845L160.73581096186788,46.88478204704911L160.69795516519451,47.65252902256318L163.71106042738288,47.45955863729218L163.73702380273483,47.870382459533296L163.15923008106313,47.89596707188199L163.1470671164366,48.267148740263565L162.70701013046647,48.43385683263419L160.6860007837381,48.67723634911442L160.63579096338265,49.26574358251996L159.83357458487086,51.02671920138519L160.12340537484565,46.315527546871245L159.73586421066926,45.400399666656824L158.27250723575787,43.981188818155665L156.16351178415226,45.79012472378292L156.10186071267628,45.160410128074986L153.57965866276902,46.645828643065386L152.28301076251824,47.88501607153545L149.6465839628243,45.0843906999226L146.90575652996517,47.8831135366658L144.42932196510083,45.33930522631009L146.18933002183087,43.36885863367829L145.61511799502236,42.77731294728355L143.7628907645037,44.64942198657502L141.45501529778744,42.148347075578414L141.3897896263861,41.71214512519833L153.12888727305136,29.69868393014103L154.906907333406,31.93953801329192Z" class="zip z94105"> </path> <path d="M160.63579096338265,49.26574358251996L164.36446988053177,49.162932570076485L164.42248978596567,49.821196172902766L160.6299550323895,50.20637874683926L160.65603097348085,50.988380533205046L163.35572580598657,50.795522623502904L163.40509227847863,51.33323643394078L160.68081378942435,51.57686291271163L161.05985978851265,56.41790423838106L163.6712038852746,56.35196683372474L161.0094944025484,56.54481928227534L158.34075605286796,57.88445590306941L157.42992885549035,58.58426200553596L156.52846965836278,57.737486288011404L153.8698731942471,60.4871740288509L153.15780399544107,59.77990857944421L150.31713022859725,62.60253015481549L151.0538085524563,63.384359424220555L145.5589297972433,68.9564263822578L151.65313932860994,75.24125632285046L151.97284402344295,75.21896759320852L152.63580983379597,75.91197678793844L153.65687002291847,77.53758706131093L154.2020550916145,79.12366475673223L160.55697845673572,78.67759757967659L161.75154962744506,76.6515858829669L162.44140448082302,76.67990128948638L162.18210161825726,77.13841025783924L162.300637245689,78.55011120471984L161.93435705253674,79.04038096576855L162.05252739355888,79.38931038672543L161.496891066457,79.94467879011086L162.17086472391935,80.22203873618123L162.11192367721173,80.46951032432298L162.41940118561166,80.61375101031827L162.5963579311196,80.26313360826649L163.42521554181144,80.35960259000936L163.4609587004115,80.58959276817151L163.8272958216243,80.26269956478532L163.93485866681212,81.87426718501752L164.39735787845945,82.21196657089253L164.9298175826225,82.17687522586276L164.7036662545007,79.1361617495528L164.893043563846,79.14719598801574L165.16586742244553,82.01975186244266L166.19634177856787,81.92260692269022L166.1605472817593,81.57206439274695L165.567803559426,81.52470005465534L165.52006766463487,78.82178772390108L166.15958534838921,79.02617107878146L166.37333494908285,81.69253701560459L167.3312801107717,81.66837600095562L167.10614514676524,78.23428248634185L167.33118275998635,78.24688523254848L167.59201664969652,81.75868949439942L167.87608287509812,81.75857833943418L167.9115454763426,81.25097192259452L168.13658898531372,81.26357311674266L168.18322231968833,77.90868536076074L168.78570432767094,77.75140928733599L169.11783031282107,78.02886553938954L169.12983646716995,80.3574414396307L169.35488288688282,80.38114387276691L169.7356248346029,85.25704918147687L170.8128548205827,85.15984445496889L170.47992686304028,80.04281635188788L170.7873486945378,80.03158484282508L171.16846356596523,85.65459802288339L168.62296471335497,85.94274808323583L168.57527808632452,86.63118930538556L168.72901964367466,86.68030095571206L168.58779269889627,87.17525992442293L168.7538226392633,87.19898702300883L168.62367780109923,87.73042479585709L168.81307893741237,87.7652460687622L168.67062630851663,88.2728954196182L168.8600823922494,88.4425458195664L168.68299202101664,88.44261668286164L168.3635229911562,89.142269575983L168.38702834334015,89.49281622445177L168.62540135994263,92.05130400302848L169.2418351487731,92.76327194736862L169.22968352363625,93.12652259794768L165.15661040269705,93.5849304441499L165.15675740079882,93.98307308374704L166.11483048660955,94.03030220350212L166.68320752882468,94.51388519805033L166.64918653883245,95.6004628784018L166.86212503953342,96.04611078917574L168.11673506968046,96.39617843822441L168.44892691165637,96.71011960462766L170.09455759539682,96.83000726047048L170.10204393993428,97.09014519898079L168.3887993312925,97.05435446298588L167.65557173624495,96.50105036750506L166.60399308268927,96.41738639789283L160.57778220791903,97.00167538898292L160.7845149133324,101.04648216873564L155.81690179621864,101.26057900253721L143.71337051071328,102.34684572688775L140.94354621225986,102.3584309743491L141.8971990479911,97.76932233599152L141.47656792653626,97.72180641049728L141.2792366009307,94.39552390958L141.73919637666754,94.35579149735969L141.51985968389897,91.82738436775468L141.2036016044198,90.65997447499969L141.39666901264187,90.57587262023931L140.63153390275008,89.38950004651886L138.72013860873574,87.4355585790137L138.2145747405403,86.55051561883448L138.02766948753492,86.69964665725277L137.6794728862372,85.43229915900669L137.67808333040006,84.24104342740819L138.18329096256537,82.65474823856363L138.4058838312285,82.73402852420004L138.4390009819161,82.12491293992869L139.12862882474377,80.42279293384686L139.32014316160908,78.26073793011751L145.99353462193028,77.67265458987255L145.85522691408525,74.81430235600934L145.0902323987693,74.04672222563298L145.5967417758615,73.53426978583039L144.4837728491673,72.76992785134546L144.52575696139223,73.68675889574956L143.33303667229802,73.84877783563388L143.12354418120327,71.33940493985797L143.43459383057004,71.10617294032446L143.536483239213,70.19248746010948L143.03726616279778,70.20050952660057L143.01999581036108,69.88961213786722L141.33300429435508,70.00093928388901L140.68614885615926,69.464899765676L141.03043481936243,69.46167175481739L146.31410010089738,64.01993264121658L138.68494320716314,56.26461850065817L149.6465839628243,45.0843906999226L152.28301076251824,47.88501607153545L153.57965866276902,46.645828643065386L156.10186071267628,45.160410128074986L156.16351178415226,45.79012472378292L158.27250723575787,43.981188818155665L159.73586421066926,45.400399666656824L160.12340537484565,46.315527546871245L159.83357458487086,51.02671920138519Z" class="zip z94107"> </path> <path d="M139.50467725727748,29.560345393634897L140.6170103675186,36.834618321270284L142.28997008069814,36.5393012466358L142.48567947503312,38.01604586982138L140.85941150280917,38.312944432296554L141.32701936395904,41.25373552981532L141.61102734697795,41.49320868729929L138.3710576796039,44.81844206127123L137.93708610775116,44.69953494573737L137.4867735077981,41.860246896205325L135.46829525570212,42.19994987051551L134.96271980712785,39.22582884302079L130.9577897915124,39.91145522464984L130.49413570756587,36.965863576074405L128.47694963540715,37.281652296027815L127.30636942431285,30.04850855660763L131.39948995737052,29.44707020514576L131.48435135032744,30.043485393202403L132.0497587750256,29.865780493047396L131.97227696608715,29.355021441754232L136.88394883433656,28.556625795798602L136.9786723681033,29.16413935489743L137.4985883611764,28.989586359759407L137.4272274509266,28.46614026854761L138.61825838858564,28.26769830088944L138.80774546274128,29.631828039577375Z" class="zip z94108"> </path> <path d="M120.48592343600893,8.986667169818503L120.59651896711546,9.878129617199534L120.10001222614687,10.112884581927005L122.1425601327405,9.786136642881367L122.39450326459735,11.256570915285039L121.50840651938498,11.40567612778193L122.50511596423382,12.252722656819714L123.04590322180606,15.65993999111221L122.89964873699309,15.647251373775376L123.31630616046978,17.1398892733759L123.60639213794968,19.436745685860686L122.04055933929037,19.6921396348298L122.15363472671406,20.350424675867288L123.70349777844133,20.07123601096056L124.03046899911998,22.217398887635582L123.16518570255813,22.349067742374835L123.19715184698893,23.283356375793325L124.20010123745857,23.108856589772415L124.42874515238519,24.553906758417128L126.45678477863483,24.246118552195224L128.47694963540715,37.281652296027815L130.49413570756587,36.965863576074405L131.204993522652,41.40566314204614L129.18404617098,41.743671519353605L129.4189367966193,43.22043538356796L127.40286944378745,43.542550340056L128.07799775131718,47.97602484373382L111.88575583589001,50.62950460031408L108.72360608185,30.24456705987994L116.72563888076274,28.949253410119287L114.22043154504654,12.931370925761087L114.41218497642089,12.477721893002176L114.3839654604101,11.751226920022013L113.21039750064084,10.223605401140041L114.22301152544469,11.099275956347142L115.74200131257977,11.660892486268736L116.7534683662145,11.410318023729559L118.38068266410376,10.12553379808152L119.31963768892189,9.176993789463083L119.67727650948532,8.604372535829192L119.63672946066805,8.187193312782455L117.51195832667811,6.023513625785185L117.63485548006403,5.904551049355447L119.39586823599633,7.60662811594532L119.54948799927301,7.520975034697685L119.90341174640602,8.17768102586431L120.10864684073563,8.147546165117546L120.07793010061738,7.722436100867043L120.6198928924139,7.885825422679304L120.23154185488424,8.142789401354662L120.62357481634014,8.303003878759547L120.38515624993396,8.452106417235434Z" class="zip z94109"> </path> <path d="M120.1534204797115,130.12998351971945L120.33794697568344,130.72323393401302L119.84830428289796,131.1324716429934L120.79190335167453,130.9024827755228L120.63932535707734,133.3182995635978L120.5249026372985,133.9480288875244L120.27884441233324,134.19389015584866L117.43444192320602,134.3286426818063L116.47730332231147,133.97011489882422L113.60214058438501,134.16663545914915L113.61435745250454,135.3642349941902L116.44895025903918,135.16612599864192L117.13535084210925,137.5439052765553L115.90124331778925,139.5710406086697L116.64310754277436,140.14053102877116L117.48086719120492,142.74514451849848L115.50978287104068,143.44140357033183L114.56103750871233,145.45109132596264L115.59577041981882,145.97143361509907L114.2679895651571,148.69013888806734L116.48518860828332,149.3786850216366L116.71772169415301,149.8038033716392L116.65861515565489,150.79836213182702L116.94528025662173,151.48838159369566L117.96775829299719,152.42270624756077L116.56743539053163,153.52031536273785L115.57442780223303,153.72171523679583L114.74880381556987,153.25690385732997L114.12257060869607,152.08147266666913L113.57135459884294,151.64046443879303L112.02552394265842,156.02466089856543L110.72863891861495,155.32343295229617L107.21814421074698,154.40620555374258L104.09431183701602,159.97816676007244L109.65746124902753,161.4302790340177L113.41668391436997,163.40387500532734L111.97431316006575,164.89163601433648L112.05038506876457,167.53904593788056L103.83469330884073,167.72840506919567L101.8693136101141,168.11194886008292L100.99071438643224,167.7088941462584L95.60793823759744,167.7442865052819L95.04558190145308,167.56650147722257L93.91208020156428,167.9596176445413L93.80630941654812,167.69627946465909L84.33047050556199,167.7015426004263L84.2763801651119,167.5238683787111L83.84560093832583,167.70773032226123L78.69910137833821,167.7392489140977L76.75480949820839,167.476786434228L75.28533776147161,167.73793528934874L73.22048595365351,167.39446855049852L71.91220054940445,167.70005634127057L60.70974535601257,167.78513720646367L62.623196993166715,165.70976027323542L64.67150818769628,164.52587464826192L66.8351227101768,164.04153131680027L70.69181160381754,163.99570011722483L68.7122474837207,162.99866774310328L68.5954656374043,162.72895678309746L68.64152420234245,158.8760448822118L68.4006722283964,158.1494450623205L68.5632504549123,157.82434393616091L68.50082881107741,149.02236752650728L69.0126905275613,149.0178419020321L69.00908099077049,140.6917562073134L68.31040437686846,140.34564085169728L68.6204290572185,137.69678990133534L68.2507823631446,136.22301902260043L69.26209219450408,136.21078972334715L70.74874894693082,135.16612950363822L71.756368733008,135.13008366564378L71.91464361896914,133.2663388791427L72.31602909208493,132.5162263368223L72.7516453029321,132.26737350689962L72.73459282015634,131.86129305843224L74.0313047863014,131.79521082063047L78.6623511597742,130.76121488691578L91.15669010281023,130.66524615275625L91.1148210728538,135.47783733328595L91.34723677354707,135.89348901655802L91.97469175338955,135.87303091220744L96.43260483383489,133.31075355721805L102.47732071343812,130.81203068632414L103.86156295381141,129.37989362066634L110.46336866475802,125.13916879648585L111.3601175960478,125.71663936219164L112.4255547708043,124.54768439133119L118.39188494013086,125.0127843688425L118.25654919982453,125.51402688721397L117.44705964659718,126.24048872709787L118.76822129167431,128.5738679714415L118.69193063643799,129.18297575657152L117.3288240886048,129.67307237318144L116.71863763870644,129.52552759956265L116.4639698636823,129.75551825588235L114.54972891731265,129.82996446697808L113.70328282247732,130.50722497681184L116.44177884256993,130.74214832220872Z" class="zip z94112"> </path> <path d="M110.83519948845966,70.32083671727192L110.85731722883665,70.47946152681945L113.3411319330079,70.31629057379024L112.53688966445608,71.32348233999936L114.95482189918518,103.65252718206258L98.6699782702932,104.89877069397019L98.5583066596548,103.62500950402637L94.92993433073723,103.65912255606952L94.1402715089057,103.79376617590303L93.32714663936736,104.29957541563556L91.50866797392456,106.58486571579246L91.10532801165454,106.22468671534763L90.65391550322259,106.25946349790134L91.39702003641818,105.5125483471125L91.36175280990754,103.9786593280317L92.17396280370286,102.26257360240905L93.06064680363765,97.70874314061146L93.332471161571,97.63425751714234L94.1581129873502,96.0180931554227L94.87407521192034,95.26163183284082L96.28658912057897,92.40833087543471L96.23026775838203,91.26940827030856L95.173778329454,91.57689840542267L94.66597950050729,91.06442978110636L93.68463739829865,90.83419340939864L94.70529194321313,91.24368250001453L95.01880984725032,91.62127706249186L92.87247712341059,92.75808588644792L92.31941017513893,91.33668834414073L90.74188784470184,90.054606527809L89.47396705998497,90.00191511863315L88.45828093032088,89.52258780247463L87.91979211134348,88.95297687440957L87.69709550140438,89.30346769449643L87.80767989102661,89.63819379553313L89.15777246084534,90.47610828198877L88.97922379270287,91.27392964770104L90.12180473087315,91.00141597857044L90.66535294443455,91.12370235487549L91.04154753687706,91.61870509503285L91.21720485948528,92.40869199277074L91.21713050226678,92.69104018086055L90.5824300044551,93.0763241938542L90.71365341082415,94.45796208151276L90.12053243227622,95.66650584855446L89.74375442122954,97.25262816246467L90.16403490152143,98.5042753801751L90.18352895045754,99.18159899604923L89.91395024854208,100.01587992714829L89.31969992938654,100.7342754397061L89.11810668899106,100.3281451901355L89.45551793291814,98.84353253872098L88.93073812559858,97.46812767162211L88.51389701986031,97.14917765024806L88.9063747611774,96.64011098760412L89.0431911384617,95.57737842243503L87.54660289034989,95.02494032596671L87.17138629077705,95.38807482741547L87.28107911182357,94.59816702712615L85.79194587596439,93.86805136152027L84.80840851909747,92.78752274316011L84.5997656150354,91.44392280361286L83.9149857266422,90.72831376618568L81.54507262931696,90.88138147699205L81.55876309786117,90.41186331026624L81.2267589834041,90.28009120727704L80.08898008468375,90.84121279677L79.09183755675684,90.18415342276037L79.49916737128808,89.46415560053762L80.23851707058142,88.80137958262975L82.4647755594842,87.84407320522043L82.24020082051291,86.44335928364939L86.4657941849311,86.1401648842824L87.0288186073228,86.84303291573931L87.23669628117734,86.69081721169809L87.63285759549117,86.10085821050657L88.4513100240327,83.81693012535047L88.07162346734404,82.76673865524381L89.90150503930519,82.63401250453379L91.77868319602341,80.29324269315181L92.71209475346899,80.04285653152749L92.80210144284533,79.08955688632419L92.4788561107988,78.4375365499817L92.43610067907724,77.31606349927695L92.20989627892018,77.09552055065345L94.92253917523554,77.18183674636443L97.05153390312722,75.18683738847172L98.17550271640764,74.87141278881222L98.76694551636669,74.96987792074023L98.64905544209952,74.18625838577937L100.7554619915498,74.04389985619481L100.5653730033107,71.28700280836392L109.78139787923355,70.62052819102932L109.6942494673539,69.16119019506334Z" class="zip z94114"> </path> <path d="M75.95018318524095,79.50765449601766L70.78212923814056,81.45339026446258L71.02666284383821,84.68781296901035L69.62469126735948,84.80140143989951L69.65392693151168,85.42321528013758L69.83452856775813,85.81192148212341L70.1763481118273,85.9373854211814L70.97713474070656,85.46186983169719L71.1759749004382,86.3391396267848L68.7716302901489,86.64579731652628L68.21556600156208,87.0928585782565L67.87335660070562,87.80650242996953L68.43534320059042,90.54776016019945L67.33693467688438,90.93746325943003L67.44529523682911,93.2803697267442L67.11606188928894,95.12182389067753L67.2534434303963,95.89755275264339L67.82731688031429,96.9272806580473L62.046787134145646,97.0751502508776L61.723489314546484,96.7609112780548L61.0099857424825,94.73334451113253L59.53453044306571,94.02669479772803L58.94312712001744,96.01709079582739L59.633768715443864,97.04374943868716L58.647035786340794,97.71736478323129L58.456555176015875,97.43649942777816L55.62537622646117,97.390511780388L12.560957584873208,99.85960481941387L12.853377858559838,102.81501733067239L12.178158663463734,102.79217777308719L11.422650134588267,101.83179882715827L10.41070577643869,101.52469558588112L10.418485090299654,101.10593932903085L9.805902234354136,99.90616604526876L9.399778418042729,97.6136786541087L9.195918111446787,97.30099552190225L9.095575325078855,94.22837812156965L8.84260922792869,92.56100942811536L9.202099240671146,90.89581894986927L8.032080019399942,85.0605417330635L7.9328585199271515,82.14178715439442L7.47426610484905,80.78828690919188L7.645676923068265,79.04043231327479L7.28373264260388,78.20889449537233L6.329775637436541,67.98630348885999L8.728831914940812,67.83637554939654L8.63586565412345,67.33979608312951L9.164344314660056,67.58617286302722L57.42429099591871,64.75173320965972L57.3439668687717,65.48135343705513L56.78792493173154,65.99022348441503L53.594909501838174,65.7377741289949L49.02316123493348,66.15377267966178L48.32698242730284,66.54672028031989L47.96867992856491,67.3348488985875L48.2679349397921,68.54057092570748L51.04263346844833,67.2986863262109L53.124436863822694,67.06517016576258L54.88964387372904,67.85772466245393L54.312831384409975,68.10008478352609L52.28530850947806,68.00689167109903L51.853409144805795,68.53484693842333L51.907041843380824,69.31688919541597L53.07989303798098,69.62372862885752L54.59301274951763,70.51448467258298L57.657485147567755,69.98006724319323L57.7679390370927,70.36240876563566L56.2497125923548,71.95255032662102L56.03746130435397,73.29279263637406L56.217939061817376,73.78779720790646L56.791979766836604,71.94492301517857L57.80070962948719,71.14285055481002L59.209944105450994,70.95961385143951L60.41855908880176,71.1347419546587L63.27774667138263,72.9080292597944L66.25469183075093,70.31283339328837L69.52834361522619,69.31819842098392L71.71464875656508,69.11295007456515L72.44523760816998,68.61360058658612L72.88091427611788,67.65411704298947L69.28596676411948,66.91812751061062L65.99495130465249,65.79513392468812L64.64740390693066,65.70089293553566L64.59642957764328,64.34305722380735L78.38161397415958,62.19650503181235L80.4695240246538,75.50729776322812L75.68829199505672,76.31606284621279L74.52879494542142,76.12207796003851L74.64848396974571,78.14139319208542L74.81089344847526,77.91621468494486L75.79100826416422,77.77225967645124Z" class="zip z94122"> </path> <path d="M170.10204393993428,97.09014519898079L170.13570480955556,98.19255819561052L174.93583477625808,97.84309956583687L175.47465352925974,103.494575958562L174.69369224896906,103.62500107672751L174.69720970537165,105.97102673444765L176.29518627045275,106.47471510070334L176.59807199290395,107.13761617289813L176.40910003339462,108.0973705038873L177.40351971562103,109.31829678981926L177.68398857059555,109.3720951863369L178.36634066748022,108.737278138688L179.07593201658364,108.48472405462212L185.4323033549123,117.00582068581983L184.71538273755723,117.42497077429744L178.5650440677229,117.75328425789706L178.53196628795547,118.03247578433479L178.54323439488343,118.44013004911942L179.56199183983156,118.8996380271073L185.0801074404617,118.56527006369018L179.54112204677477,118.98530442508266L178.45836677223497,118.46079198212395L178.36454651454326,117.77241578589887L177.59088423410395,117.92506377282959L177.51965869817917,118.17889354942707L178.2214429393061,119.47450362351282L179.21932549229774,119.9943011395826L185.5470748293663,119.95454989338789L185.5004351551686,120.14809462419002L182.38984248781043,120.92540646054745L180.81082258639964,121.87001491024746L179.65945994988948,121.98003787035L178.12656872023697,121.71429809638418L177.54580797123504,121.4353999622569L177.01037181533843,120.7456455060057L176.02484307813663,120.332100481581L175.91658895462837,122.99383490972755L175.1076192261391,124.03794070952651L174.95185186713024,125.06271217239401L175.98621826274487,124.5974754672335L176.44051313179475,125.3713422070229L176.36068473601165,125.65848591507384L175.9634181779291,125.83949949078239L176.30929985879774,126.26761984604934L176.31560924739784,126.60865508903491L175.70002714149217,128.23323281102302L177.20745361154644,129.11288505628778L177.95759002656166,128.4875562347437L179.5276059971331,126.51670408114708L179.88061852009758,126.40866662242784L181.50408516658672,128.06069713709508L182.3710309841768,127.37659016656295L182.44368107376647,127.50820922813261L181.5939463602872,128.17010082676268L183.0462245434235,129.3717093749452L183.2962678678572,129.95848140916638L184.0713690067156,130.0627632835621L184.57306094550876,129.60883583882972L185.7125306700654,130.1205708203595L186.38511598454954,129.48095415238942L186.60782984327608,129.5585562757367L188.34472277270055,127.05928078779067L188.4518493869663,127.233704604161L186.75064683763205,129.75834149046847L187.8940140316193,130.61743609190597L188.944974757897,129.05758095840653L188.56037049910273,129.85725740936422L190.2551055356754,131.06974168892222L191.2347627391743,129.6399779536766L191.621230856777,129.936372358696L190.59604748676924,131.35030379536943L191.31726767450698,131.84953897694413L192.296933698415,130.44514595936525L192.64769285206688,130.67969569569843L191.67051793178163,132.13167687127154L192.42006354892948,132.6641990601168L192.30458128866874,132.93392659682263L193.72693193213524,133.20589323291438L193.90872536408818,132.74101800358312L194.83131884395988,132.57706593264356L196.22207994616298,133.4724078478116L196.1091305368954,133.84365585137056L192.18898605256587,135.06588071716612L192.05268957336014,135.5085188455368L192.59895149557707,135.53039743825428L197.5794182702636,134.01719936279193L197.90440000454302,134.30885402459342L197.48269971452362,134.75009720494697L194.75935595123883,135.55445268159156L194.28100947271201,135.93702924364177L194.87404773598195,135.99535142808367L198.18906317977866,135.02881446194098L198.48570594179097,135.24910589481627L197.62203476377118,139.03915574195952L197.2629733764584,139.340769849629L192.77309240608753,140.70296688625857L193.24163591788204,142.36504434164516L197.36623677664062,141.11885973909494L197.48344241460612,141.6184444802709L193.07334921513512,142.8140479066136L188.85983900343774,139.37760090491463L188.49207852180325,139.56815740229607L188.67193221300158,139.96302460381244L192.0238581450296,142.83371573951592L191.5074964254844,143.49389262643336L194.8337674887324,146.3851390584619L194.50430051571976,146.83900355374863L191.09452956310471,144.23648976609354L190.11964292821736,145.62024818634163L195.8843915741433,150.05658588302214L194.92795500916043,151.41657906757084L191.49469799070212,148.8727822320762L190.34518309207522,150.47713084455677L191.67343070022628,151.47566731200817L191.54806931184234,151.72002021058336L196.55478004040776,155.52862824127652L196.3838736994099,155.738118419621L191.56061544452206,152.1260857272549L190.0963239256652,154.1731745217117L194.8974787611167,157.79638465575005L194.72777495937214,157.97097475230998L189.93773315800286,154.41754500703894L188.41179955988991,156.35995760588435L188.4119247633929,156.58044242736474L193.4765421784355,160.33204464157063L193.34003620316463,160.47171552460986L188.148555900151,156.51079790761352L189.3387328185708,154.8477577040657L189.13308024453886,154.5687007984625L188.82551756718414,154.6735676213878L188.27971979534,155.62719784049932L188.06194707988894,155.67332150268894L187.45261441668316,155.2549014182086L186.93763771436537,154.12262573427589L185.37299121871987,152.83229900293344L184.8351310439622,152.5645176288187L183.11733344751255,152.4448750614054L182.59416936805738,152.02955700719772L182.10398193471153,151.1288355675838L180.34294693918582,150.61737749435028L177.38131542360054,150.74095664905968L177.22577837958175,149.6814335183488L176.96225876781872,149.24376021984537L175.43108579771064,148.12142417448487L175.03779912656012,146.39737906680878L175.06286170429337,144.68741944566983L174.22323760787287,143.56633779166012L174.14531873059713,142.65746677413367L173.22739650518224,142.49766396540792L171.62934751903697,142.95201289370834L170.32001061604728,145.38424100158647L169.33237905058928,146.30941282162075L167.0434138258412,145.23168537227733L165.5837459144203,144.0965029233959L165.31038834028195,143.52080556349227L163.87295907490932,142.53628464290398L162.31142615426646,141.95151707691417L161.8205892372822,142.17375647369963L161.7271848364809,142.47675683651977L166.7336518187474,146.00746723352813L166.8298504335573,146.60067771202705L166.07247021614035,148.06029048797183L166.23025933750185,148.8406524502411L168.14654853407598,150.13268337644877L168.5689285211806,150.9811449846404L169.52005714658472,150.95379658865255L170.5736415756267,151.71792295849136L170.33885319178341,152.27319808940706L170.47182699792387,152.474593295519L171.1978197738173,152.51394569751602L174.92737004529008,155.23268856920842L173.4371881034669,157.91724133413504L171.59598915592875,160.0340567245689L170.6271592499566,162.05848260216254L170.23351787974505,162.39968327799554L170.19596168089453,163.8352293847028L171.69033764039736,164.87675164164213L172.33198796479664,166.05821232384903L172.33225281241786,166.6736661429174L172.68681496435048,167.00661953089775L173.95785675577812,166.57936823499526L174.62554615892307,165.38940358565785L175.05745212813662,165.30989737788045L175.69004687577115,165.45078241979311L176.85464581878804,166.40356116373428L177.09854436521036,166.906278733247L176.80948325176587,167.1935206303948L175.59866160641198,167.43677364062955L170.89027692094515,167.41028451825397L169.71356119435154,166.82704098444464L164.69358499305628,166.0580774869474L162.8989594050035,164.9293290984904L161.6537749861653,165.46590075575625L160.20463202639962,167.02563874594063L158.3115015083631,165.62402207059785L158.04444820736643,165.5860353594412L157.12906511806378,166.2112851199476L155.74064960878394,165.2250641489988L156.77657604689,164.41578775146343L159.48379501897097,164.14370757719283L161.9643531915208,163.22763642605705L162.39384407171798,163.27983419614327L160.78241044466802,161.46415580050973L160.40050586793183,160.1540626156733L159.4410454782988,161.3027982805842L157.39224375034368,161.57468012885917L156.74978911141204,161.23700754702315L156.425714303487,159.75081356398297L154.18966211385467,159.19627271973874L152.10143715425724,159.19365637907464L149.89958537067488,157.44142713988992L149.94624810630143,157.03534316993944L148.05353047966378,156.20935845191693L147.60287174049566,154.8706865306631L147.40303362356084,152.577052789648L146.6062069228289,149.18746589938021L144.07005501883032,141.45672235825685L143.029536043261,136.61100240763997L139.53534610088897,127.50824154981794L137.61579474541173,124.28054795521943L136.97807972173302,120.48479699801213L135.76645298471422,120.93226117880047L135.6098737552541,117.90893594971259L136.9519282694841,117.99284191255028L137.08581180665476,116.45894566543132L137.43501321690633,115.3691638305981L140.0518726641315,110.54032104039041L139.63240961938948,110.38176257333438L138.86002272778228,110.8593301948429L138.71116278323657,110.67534948775376L139.35421296940564,108.96054669371209L140.94354621225986,102.3584309743491L143.71337051071328,102.34684572688775L155.81690179621864,101.26057900253721L160.7845149133324,101.04648216873564L160.57778220791903,97.00167538898292L166.60399308268927,96.41738639789283L167.65557173624495,96.50105036750506L168.3887993312925,97.05435446298588Z" class="zip z94124"> </path> <path d="M91.15669010281023,130.66524615275625L78.6623511597742,130.76121488691578L74.0313047863014,131.79521082063047L72.73459282015634,131.86129305843224L72.7516453029321,132.26737350689962L72.31602909208493,132.5162263368223L71.91464361896914,133.2663388791427L71.756368733008,135.13008366564378L70.74874894693082,135.16612950363822L69.26209219450408,136.21078972334715L68.2507823631446,136.22301902260043L68.6204290572185,137.69678990133534L68.31040437686846,140.34564085169728L69.00908099077049,140.6917562073134L68.97425558599876,144.233776522224L66.75036388211,145.48744929779585L66.29346137852673,146.38186223105248L57.262278838140986,146.41052208328392L57.43145278564366,147.5368338400645L57.457063917398514,152.40813776711877L56.473917914585726,152.41234970945368L56.71471888204479,146.46414925698565L56.213886160775175,146.56697307246776L56.203314084428314,145.67550984463102L56.296778703866536,141.3768978396817L56.59136353246973,138.2284097030356L56.01928084832687,138.2011225026763L56.19208670413518,135.01766927786537L56.692780514970124,135.0750540437245L56.98872290272908,127.22499711920793L57.35173957931991,127.03167906032704L57.43975295610652,125.81985245170674L57.70548305310264,125.8025504114862L57.608688742445224,125.0934549304133L58.69133612642493,122.65760566719959L58.312778687018216,122.05146236327009L58.00656353057161,115.14170081309666L61.268828347984666,114.94040419210478L62.222454034707035,111.9112061782584L67.31017076140574,111.34424218694312L70.128232360601,108.45859698981047L70.87328023271962,109.22507191531922L73.41424709178602,106.84364544361885L73.105727797763,106.34702832760851L77.85183542796437,107.39582564500189L79.47140412322142,108.31167792865355L81.98667455047472,108.56477568444706L84.73815992163262,112.5439371404829L85.57323339996128,112.95820498633032L88.21893540732492,113.4443841776361L88.70711186212858,113.99335796770266L88.91097280644414,115.1577047449564L89.18884963349889,115.58606370709762L90.69309837624961,116.10517163512074L91.6313646259382,117.21736251583287L92.88962865584662,117.72051574383485L93.26469874341954,118.1726824988732L93.17204412195515,119.78109121790476L93.4497310305623,121.09613930227187L93.2109100957002,121.80353675122986L91.90790866126515,122.88184109716377L91.29776473525203,122.82933707091709L91.01837051867552,123.39078671829091L90.62605399117571,122.99888473860261L90.75673175240235,121.94725309489557L89.13785058931128,121.97536131788473L89.35534347350907,122.84625933079047L88.56278490832838,124.02777233862123L88.625281269954,124.87642007650452L89.81085454693323,126.03152356676246L89.77260936180278,126.42806902301402L89.36280911886294,126.94982302731523L89.45871920062345,127.11323082354949L91.09857561646757,127.12002061533829Z" class="zip z94127"> </path> <path d="M-597.3196544324434,189.2862774624143L-597.9245598382704,189.57284011478166L-598.454502958072,189.2792939715487L-598.3085886583101,188.77100636054794L-597.7023495097442,188.26713770672737L-596.2119173843106,188.0954651282945L-596.0369055454529,188.45979060741973L-596.2525201628952,188.8946856002976ZM-608.9463028031576,177.98513908984398L-608.4171206436189,178.38817997632924L-607.5993389812933,178.1045858481883L-607.0377273872239,178.83459045900878L-605.9747120964795,179.09501098519237L-605.7299495279173,179.71517184885482L-604.1759992204655,180.5972669335903L-603.8601546263454,181.0703436969335L-604.0782661919809,181.90494418055698L-605.0051841299229,182.51623865987273L-606.1024576345508,182.21754394333206L-606.4256312537526,182.72471848193857L-606.5399408457786,183.8851421691195L-606.717857615062,183.99348528046195L-607.6370057457787,183.5515369137591L-608.2679824336926,182.49432899541003L-607.5186001013344,181.73601812859036L-607.549896194319,181.228222639313L-608.5090105964008,181.4744509119642L-609.0754948692545,181.32656305742174L-609.3917654569859,180.92485073085857L-609.3146987263282,180.01641063115355L-609.7711421184752,179.39650437304772L-609.159220193221,177.98380841453405ZM-597.0265654527042,177.44989585381117L-596.7104863121225,177.88805718936536L-595.6456763858715,177.85811101108823L-595.0042608474164,177.42741185752635L-594.1858109286095,177.83216084247428L-593.7750366336113,178.88794517195657L-593.1234984840255,179.21711140282898L-592.7036484815335,180.1999798079928L-592.7070792650188,180.96294499867878L-592.9574684735418,181.25169860440488L-592.8894184244807,181.7977844156154L-592.1890123016652,183.3994161000135L-592.2964102183917,183.6525602850075L-592.757958711147,183.64974107586136L-593.129492821899,183.21759671654442L-593.4997087854857,183.1740903885642L-593.5461324097917,183.51960885708058L-593.1511181668992,184.3389429814873L-593.7037069662092,185.13344699013052L-593.7297291585564,186.36897614699495L-595.9837123268043,185.80949401872877L-597.1151728603385,185.25687417458354L-597.3937922092299,184.52865864664486L-597.3536314692377,183.80240315190196L-597.9853757531257,182.85469782320868L-598.5863319547708,182.7050624695608L-599.085133930608,182.95578881186876L-599.2339492131844,183.9351739635869L-599.4116342364351,184.00704582161194L-600.1110407816238,182.65759031950984L-602.9093792149208,182.16757994817084L-602.8314677461533,181.114792365839L-601.094072455319,181.19851253559577L-600.7671234955586,180.07588154272887L-599.7032980697638,180.00948233133968L-599.4479641459401,178.92130333532813L-598.8451330847961,178.96308979214288L-598.7360448252373,178.63699440067322L-599.1585179736893,178.08872040341035L-599.2610066788676,177.5440045676529L-598.3633628755541,175.87921421172211L-597.5147248600911,176.1747212758607L-597.5207546537845,177.1549869782712ZM-597.8262174704209,175.192501961498L-598.3922252663272,174.9701148471144L-598.212103133065,174.50010758696283L-597.8569880567774,174.39284227872716L-597.717468243514,174.7204684604314ZM-599.1651084496797,173.76773296705335L-599.523128807007,174.34609287541863L-599.7349140426111,174.16236745190378L-599.6606271483777,173.69170929747375L-599.2693732254041,173.51170370046572ZM-596.6096390772226,173.4931767285291L-597.3209741248214,173.88853958554213L-597.5307519329172,173.37806286684628L-596.991399702946,172.329695217554L-596.5283368475917,172.078740594152L-596.1048643863835,172.26217378095205L-596.1086525296796,172.8792020253505ZM-632.0295763008587,135.59506749696243L-632.4200388624789,135.66393047973853L-632.7008968513916,135.33534931328302L-632.5565989448816,134.90006009321428L-631.8807675674767,134.65061831200381L-631.7418619369485,135.05125034956873ZM39.48268575592253,122.3521751602535L40.1568129599425,122.3463040982769L41.35785824057497,121.74120089593228L43.66224430584623,121.25738289516958L45.428450387554946,121.67731624104611L58.315786766617926,121.04579771877006L58.34589509299723,122.23072375328209L58.69133612642493,122.65760566719959L57.608688742445224,125.0934549304133L57.70548305310264,125.8025504114862L57.43975295610652,125.81985245170674L57.35173957931991,127.03167906032704L56.98872290272908,127.22499711920793L56.692780514970124,135.0750540437245L56.19208670413518,135.01766927786537L56.01928084832687,138.2011225026763L56.59136353246973,138.2284097030356L56.296778703866536,141.3768978396817L56.203314084428314,145.67550984463102L56.213886160775175,146.56697307246776L56.71471888204479,146.46414925698565L56.473917914585726,152.41234970945368L57.457063917398514,152.40813776711877L57.43145278564366,147.5368338400645L57.262278838140986,146.41052208328392L66.29346137852673,146.38186223105248L66.75036388211,145.48744929779585L68.97425558599876,144.233776522224L69.0126905275613,149.0178419020321L68.50082881107741,149.02236752650728L68.5632504549123,157.82434393616091L68.4006722283964,158.1494450623205L68.64152420234245,158.8760448822118L68.5954656374043,162.72895678309746L68.7122474837207,162.99866774310328L70.69181160381754,163.99570011722483L66.8351227101768,164.04153131680027L64.67150818769628,164.52587464826192L62.623196993166715,165.70976027323542L60.70974535601257,167.78513720646367L57.03897187642413,167.43577356788492L40.34168588099391,167.6568964603414L40.55362667019824,167.26524749076594L40.14232419415083,167.65675710535385L19.143832323552047,167.9732827896368L18.56087620046111,166.17082061496086L17.795417120434934,160.66595026715976L16.87399140877632,157.63861323232425L16.657706311356392,155.953850204657L16.209892213934467,154.49412108116064L15.941322241423421,152.13675067460014L15.035087779462074,148.76995999904824L14.927149587555803,147.05515392684882L14.618871383163054,146.45052018579403L14.357753505987347,144.0725312599816L13.92072796855524,143.0014272963181L13.790020614552915,140.6536954639764L13.300493096278956,137.84562534002893L13.706357206422126,135.3397680830331L12.611736296352277,131.03532301377226L12.816363020282978,129.28273635531335L12.111069884538082,127.06294757406528L12.547441434912287,126.12272570668266L12.272177934192527,125.80363655524113L12.243799992460211,124.58221692796141L12.055936801724044,124.20610516718551L12.903974246067321,123.7246872151226L14.228343409145651,124.28902523999358L20.130609191215115,124.40535243798784L21.526499362225834,124.82056492575994L24.11962539762429,126.396299228359L25.755351980570097,126.92111118007548L30.24441950550684,126.83430538774127L30.682787553990778,126.30009096604218L31.67642901492536,126.75928162809653L33.022331360501866,126.67307126504818L33.34841882078956,126.5606970344873L33.23420148886403,124.68886558826438L34.520082744231644,124.22507099207608L34.02666051271092,122.7542706419243L33.283331340965134,121.54817827256743L34.10073750801281,120.76202823290078L34.920188889599046,120.51836283506196L36.36707223333532,121.8597913433544ZM-712.0950330820839,76.54989010462849L-712.238528321708,76.84073903055194L-713.0183275138446,76.68923363826013L-713.5151888004649,76.86810336259227L-713.937471797484,76.2480258218184L-712.2697729528718,76.2218718981716ZM-714.9388718160693,72.35450402045035L-715.8967496427229,72.34764034212466L-716.3214261424903,72.23672861550173L-716.2121052879719,71.91074163565176L-715.678828700589,71.62427829995927L-715.0057709110372,71.73696688026638L-714.5829230969978,72.10324979148803ZM-713.1235985536337,71.45855869599977L-713.9054481817401,71.59890563487032L-714.5725223591735,70.65030328669836L-714.2157964430139,70.28960107871625L-713.3318488053352,70.65917790891547ZM-723.8679315489924,65.93879943877329L-724.7911570424026,66.07805001376417L-724.9676037151095,65.8229683374228L-724.7522585418138,65.4612733471443L-723.754567082731,64.88633757851076L-723.7883870981483,64.63228982365783L-724.3184131148023,64.30168114556373L-724.3155182863032,63.90196238888974L-723.8507682943817,63.39772127188887L-723.2884177924811,64.01884884074721L-723.0807756426807,64.89121206814269L-723.2622933124466,65.50695775246302Z" class="zip z94132"> </path> <path d="M80.51159641714878,88.62064705230816L79.49916737128808,89.46415560053762L79.09183755675684,90.18415342276037L80.08898008468375,90.84121279677L81.2267589834041,90.28009120727704L81.55876309786117,90.41186331026624L81.54507262931696,90.88138147699205L83.9149857266422,90.72831376618568L84.5997656150354,91.44392280361286L84.80840851909747,92.78752274316011L85.79194587596439,93.86805136152027L87.28107911182357,94.59816702712615L87.17138629077705,95.38807482741547L87.54660289034989,95.02494032596671L89.0431911384617,95.57737842243503L88.9063747611774,96.64011098760412L88.51389701986031,97.14917765024806L88.93073812559858,97.46812767162211L89.45551793291814,98.84353253872098L89.11810668899106,100.3281451901355L89.31969992938654,100.7342754397061L89.91395024854208,100.01587992714829L90.18352895045754,99.18159899604923L90.16403490152143,98.5042753801751L89.74375442122954,97.25262816246467L90.12053243227622,95.66650584855446L90.71365341082415,94.45796208151276L90.5824300044551,93.0763241938542L91.21713050226678,92.69104018086055L91.21720485948528,92.40869199277074L91.04154753687706,91.61870509503285L90.66535294443455,91.12370235487549L90.12180473087315,91.00141597857044L88.97922379270287,91.27392964770104L89.15777246084534,90.47610828198877L87.80767989102661,89.63819379553313L87.69709550140438,89.30346769449643L87.91979211134348,88.95297687440957L88.45828093032088,89.52258780247463L89.47396705998497,90.00191511863315L90.74188784470184,90.054606527809L92.31941017513893,91.33668834414073L92.87247712341059,92.75808588644792L95.01880984725032,91.62127706249186L94.70529194321313,91.24368250001453L93.87152795900872,91.00872338970662L93.68463739829865,90.83419340939864L94.66597950050729,91.06442978110636L95.173778329454,91.57689840542267L96.23026775838203,91.26940827030856L96.28658912057897,92.40833087543471L94.87407521192034,95.26163183284082L94.1581129873502,96.0180931554227L93.332471161571,97.63425751714234L93.06064680363765,97.70874314061146L92.17396280370286,102.26257360240905L91.36175280990754,103.9786593280317L91.39702003641818,105.5125483471125L90.65391550322259,106.25946349790134L91.10532801165454,106.22468671534763L91.50866797392456,106.58486571579246L93.32714663936736,104.29957541563556L94.1402715089057,103.79376617590303L95.073842642817,103.64329353933216L98.5583066596548,103.62500950402637L98.6699782702932,104.89877069397019L114.95482189918518,103.65252718206258L115.88893851921533,116.06161690443868L115.61090467181371,116.69609183843016L115.76339049638517,117.5494888264866L115.45586546203874,117.54788579300063L114.23784547143713,120.8693650151232L110.61603458309061,123.87020454624748L111.16216388745072,124.56978124417867L103.86156295381141,129.37989362066634L102.47732071343812,130.81203068632414L96.43260483383489,133.31075355721805L91.97469175338955,135.87303091220744L91.34723677354707,135.89348901655802L91.1148210728538,135.47783733328595L91.09857561646757,127.12002061533829L89.45871920062345,127.11323082354949L89.36280911886294,126.94982302731523L89.77260936180278,126.42806902301402L89.81085454693323,126.03152356676246L88.625281269954,124.87642007650452L88.55538937686083,124.07852939463943L89.35534347350907,122.84625933079047L89.13785058931128,121.97536131788473L90.75673175240235,121.94725309489557L90.62605399117571,122.99888473860261L91.01837051867552,123.39078671829091L91.29776473525203,122.82933707091709L91.90790866126515,122.88184109716377L93.3093528556789,121.6766630119553L93.4497310305623,121.09613930227187L93.18062722874453,119.89371526183562L93.3101391364227,118.47249007483846L93.17740689580174,117.98707275202098L91.6313646259382,117.21736251583287L90.69309837624961,116.10517163512074L89.18884963349889,115.58606370709762L88.91097280644414,115.1577047449564L88.70711186212858,113.99335796770266L88.21893540732492,113.4443841776361L85.57323339996128,112.95820498633032L84.73815992163262,112.5439371404829L81.98667455047472,108.56477568444706L79.47140412322142,108.31167792865355L77.85183542796437,107.39582564500189L73.105727797763,106.34702832760851L72.81317613836777,105.9091074407153L73.40629522498472,105.26058936701273L73.39555854034964,104.45954113240836L71.1693526879467,101.56849163898525L70.31051304987082,99.57105706948016L67.82731688031429,96.9272806580473L67.16012045477426,95.58343629254057L67.45151922725161,93.12016380867256L67.33693467688438,90.93746325943003L68.43534320059042,90.54776016019945L67.87335660070562,87.80650242996953L68.21556600156208,87.0928585782565L68.7716302901489,86.64579731652628L71.1759749004382,86.3391396267848L70.97713474070656,85.46186983169719L70.1763481118273,85.9373854211814L69.83452856775813,85.81192148212341L69.65392693151168,85.42321528013758L69.62469126735948,84.80140143989951L71.02666284383821,84.68781296901035L70.78212923814056,81.45339026446258L77.07797377276322,79.10360561954094L77.40275603287137,85.1758050321288L79.70440939165465,83.04159988138322L81.16654557240278,83.10398267883096L81.88439894356472,87.6011828489925L80.43663638742018,88.45882535410682Z" class="zip z94131"> </path> <path d="M122.14378174174007,3.8092229270264113L126.7007105327125,7.625597312918515L126.92314537245055,7.530414365694526L126.66628375320734,7.216351422382701L127.05709980820953,7.52247749417451L127.41471482254164,7.3638384902413065L126.77440820039148,6.672270248328459L126.90098300084416,6.543780395071259L129.07379347811116,7.496993093984386L129.16349227742634,7.268570545288462L128.0512626319957,6.519933019137284L128.36092964201964,6.0805309176531L128.6497451647208,6.388243408880726L128.55266602993518,6.502457438874401L130.06433849799572,7.7475532016862445L130.36911361467168,7.701531099756863L130.95774578060463,7.279550331208924L129.7962766122628,5.472917918398167L129.96708790615992,5.344421777490567L131.58332180787693,7.833094856106122L132.61812212020268,8.137561476022022L132.72250607246303,7.301608874360994L131.68015574700786,4.782767007278039L132.48380557378508,4.114894871482484L133.05648644230962,4.222705694831248L133.33918843921447,4.769927889189347L133.08616331344857,6.151558345352477L133.78434732998156,7.664753180566763L134.23784308174353,7.810639681726187L134.40132673444361,8.129454612201776L134.42602552981649,9.255675068635071L138.5003369144453,11.417201567444586L138.34679740369384,12.01364547898482L138.88393302631587,12.47674810641081L139.23696168300128,14.557829668408417L138.2722066436709,14.724522141673035L138.5280591016757,16.25519762647515L139.5100347827282,16.101190303380818L139.37014602140468,17.587508122642262L141.69544927403297,17.249272350331978L142.16790460649702,20.15675007435098L141.1736005280148,20.267953554335364L141.23645245337042,21.294233534314095L140.24088444485744,21.24997881614405L140.27779503618498,21.49266611530082L140.35652981791853,21.957418922779425L141.39263586462232,21.831939410039084L140.9711760977156,22.56643272312948L141.10528665191148,23.413457228724184L142.6207353711943,23.164161579420313L143.30859657533443,27.49602967397175L139.26724115542027,28.17084421579736L139.50467725727748,29.560345393634897L138.80774546274128,29.631828039577375L138.61825838858564,28.26769830088944L137.4272274509266,28.46614026854761L137.4985883611764,28.989586359759407L136.9786723681033,29.16413935489743L136.88394883433656,28.556625795798602L131.97227696608715,29.355021441754232L132.0497587750256,29.865780493047396L131.48435135032744,30.043485393202403L131.39948995737052,29.44707020514576L127.30636942431285,30.04850855660763L126.45678477863483,24.246118552195224L124.42874515238519,24.553906758417128L124.20010123745857,23.108856589772415L123.19715184698893,23.283356375793325L123.16518570255813,22.349067742374835L124.03046899911998,22.217398887635582L123.70349777844133,20.07123601096056L122.15363472671406,20.350424675867288L122.04055933929037,19.6921396348298L123.60639213794968,19.436745685860686L123.31630616046978,17.1398892733759L122.89964873699309,15.647251373775376L123.04590322180606,15.65993999111221L122.50511596423382,12.252722656819714L121.50840651938498,11.40567612778193L122.39450326459735,11.256570915285039L122.1425601327405,9.786136642881367L120.10001222614687,10.112884581927005L120.59651896711546,9.878129617199534L120.48592343600893,8.986667169818503L123.58412027866608,8.477486513020445L123.48457035656246,8.104723841570411L121.06968627354898,8.0238318561004L121.04142330469715,7.678033549671177L123.4108281494418,7.668511584294997L123.62343874618192,7.900098361530112L123.8028804306289,8.901006666767692L124.14575900639078,8.87244873700672L124.25637264799755,9.261072921559702L125.44108333327397,8.994557443792687L125.54553636546869,8.716964126300141L124.45790915654545,8.637680592741788L125.57502653747812,8.56151271821421L125.63646010244506,8.107849128319806L124.11747795487125,8.042851124060952L124.15310883035329,7.574912706246835L120.2905888820443,4.21687158019985L120.55112172069168,3.867904534000047L122.32197609055548,5.006826103854337L121.6669664979088,4.012259963130319ZM115.90356841400589,-22.795191313780876L117.0633662004761,-22.247886905607018L117.73662523135799,-21.42619285408658L119.21588595706767,-20.59813577741936L119.01685531838064,-20.996284602748432L120.16193513859312,-20.02707400111275L120.0562685794636,-19.88272871916557L119.73682243647855,-20.090530694013054L120.47154528846413,-19.232367967133058L120.61406315174692,-18.654978229011903L120.43712839875958,-18.15849027234478L120.06483354346996,-17.733386040648725L118.73663003596029,-17.606517154691915L117.68244597724723,-18.202974087276388L117.36424066406481,-18.72644239817427L116.40835918868451,-19.169042610794378L116.4427802191731,-19.557667482757495L115.39845156497097,-20.098626515905934L115.45990238830582,-20.423800352403262L114.64539584407596,-21.814973162173672L114.17730003914272,-22.021213580357184L114.10607294612262,-22.51770860447094L114.7437538998428,-22.89836262591443Z" class="zip z94133"> </path> <path d="M138.3710576796039,44.81844206127123L113.3411319330079,70.31629057379024L110.85731722883665,70.47946152681945L109.24643072469364,60.162474880342494L109.45917144472293,59.810355401128064L109.22192422202562,59.39949677300877L108.74284439428149,55.69084324612945L112.62057964598698,55.05514153443853L111.88575583589001,50.62950460031408L128.07799775131718,47.97602484373382L127.40286944378745,43.542550340056L129.4189367966193,43.22043538356796L129.18404617098,41.743671519353605L131.204993522652,41.40566314204614L130.9577897915124,39.91145522464984L134.96271980712785,39.22582884302079L135.46829525570212,42.19994987051551L137.4867735077981,41.860246896205325L137.93708610775116,44.69953494573737Z" class="zip z94102"> </path> <path d="M146.90575652996517,47.8831135366658L138.68494320716314,56.26461850065817L146.31410010089738,64.01993264121658L141.03043481936243,69.46167175481739L140.68614885615926,69.464899765676L141.33300429435508,70.00093928388901L143.01999581036108,69.88961213786722L143.03726616279778,70.20050952660057L143.536483239213,70.19248746010948L143.43459383057004,71.10617294032446L143.12354418120327,71.33940493985797L143.33303667229802,73.84877783563388L144.52575696139223,73.68675889574956L144.4837728491673,72.76992785134546L145.5967417758615,73.53426978583039L145.0902323987693,74.04672222563298L145.85522691408525,74.81430235600934L145.99353462193028,77.67265458987255L136.47221490082134,78.48002455013986L136.32193989986467,76.41636220866828L121.68151299579009,77.5418740004546L119.48161142227187,77.76709148038015L119.7484035976995,80.3003007137198L118.88883536107224,80.37324741132218L118.69830229004882,77.82893481431402L113.08107913429622,78.2632672256905L112.53567263932504,71.16803200111816L118.00395758912057,65.37227314281796L141.3897896263861,41.71214512519833L141.50912202887025,42.25144289482003L143.7628907645037,44.64942198657502L145.61511799502236,42.77731294728355L146.18933002183087,43.36885863367829L144.42932196510083,45.33930522631009Z" class="zip z94103"> </path> <path d="M139.32014316160908,78.26073793011751L139.2011357166219,80.11029566540479L138.4390009819161,82.12491293992869L138.4058838312285,82.73402852420004L138.18329096256537,82.65474823856363L137.78377028778573,83.7112296184433L137.6794728862372,85.43229915900669L138.02766948753492,86.69964665725277L138.2145747405403,86.55051561883448L138.72013860873574,87.4355585790137L140.63153390275008,89.38950004651886L141.39666901264187,90.57587262023931L141.2036016044198,90.65997447499969L141.51985968389897,91.82738436775468L141.73919637666754,94.35579149735969L141.2792366009307,94.39552390958L141.38656667734125,96.40049544061996L141.47656792653626,97.72180641049728L141.8971990479911,97.76932233599152L141.86037989311546,98.22616155788327L139.35421296940564,108.96054669371209L138.71116278323657,110.67534948775376L138.86002272778228,110.8593301948429L139.63240961938948,110.38176257333438L140.0518726641315,110.54032104039041L137.43501321690633,115.3691638305981L137.08581180665476,116.45894566543132L136.9519282694841,117.99284191255028L135.6098737552541,117.90893594971259L135.76645298471422,120.93226117880047L135.50936993885824,121.06553400199778L135.42832733901923,122.34086758535707L135.02374409670693,123.56547836799676L134.19474870307818,124.85992658539163L133.25375199407333,125.78478951787037L130.88452522059055,127.28080268385727L130.00252783713188,128.12949612102494L127.71562812814456,129.43985109746976L125.62303095052181,129.97449204969973L121.1622123327144,130.00309720570363L116.44177884256993,130.74214832220872L113.70328282247732,130.50722497681184L114.54972891731265,129.82996446697808L118.21828712667923,129.42089495493408L118.69193063643799,129.18297575657152L118.81742377699564,128.80069931848698L117.9747889968074,126.90830834220563L117.44705964659718,126.24048872709787L118.25654919982453,125.51402688721397L118.39188494013086,125.0127843688425L112.4255547708043,124.54768439133119L111.3601175960478,125.71663936219164L110.46336866475802,125.13916879648585L111.16216388745072,124.56978124417867L110.61603458309061,123.87020454624748L114.23784547143713,120.8693650151232L115.45586546203874,117.54788579300063L115.76339049638517,117.5494888264866L115.61090467181371,116.69609183843016L115.88893851921533,116.06161690443868L113.08107913429622,78.2632672256905L118.69830229004882,77.82893481431402L118.88883536107224,80.37324741132218L119.7484035976995,80.3003007137198L119.48161142227187,77.76709148038015L136.32193989986467,76.41636220866828L136.47221490082134,78.48002455013986Z" class="zip z94110"> </path> <path d="M155.8016371627196,31.498310954402537L154.906907333406,31.93953801329192L153.12888727305136,29.69868393014103L146.63901186589257,36.35763495306749L146.08453483314514,35.93581376400918L145.42107260682644,31.442162724616924L139.910732185148,32.34728786511482L139.26724115542027,28.17084421579736L143.30859657533443,27.49602967397175L142.6207353711943,23.164161579420313L141.10528665191148,23.413457228724184L140.9711760977156,22.56643272312948L141.39263586462232,21.831939410039084L140.35652981791853,21.957418922779425L140.27779503618498,21.49266611530082L140.24088444485744,21.24997881614405L141.23645245337042,21.294233534314095L141.1736005280148,20.267953554335364L142.16790460649702,20.15675007435098L141.69544927403297,17.249272350331978L139.37014602140468,17.587508122642262L139.5100347827282,16.101190303380818L138.5280591016757,16.25519762647515L138.2722066436709,14.724522141673035L139.23696168300128,14.557829668408417L138.88393302631587,12.47674810641081L138.34679740369384,12.01364547898482L138.5003369144453,11.417201567444586L134.42602552981649,9.255675068635071L134.53041490103098,8.581516301204246L135.8430161505367,9.242825892871679L136.23503574711515,9.087328266836288L136.40712115890037,9.33951768634362L137.5414939942796,9.647100815889885L137.21905599049467,6.200266079178732L137.9650073966758,6.13830353917983L138.25197690739802,10.660604863676433L139.0668734256958,11.245807367012368L140.28551601569023,8.003369512460893L140.71444374060889,8.158752089785736L139.80545970179145,11.036314807372719L140.7359050458679,11.70714439005566L142.1869380208422,9.38942113335834L142.67733813891164,9.638373409252509L141.4106388722057,11.827587662531172L142.126030224898,12.525407602862977L144.43605332075094,9.982260672318176L145.09489722702244,10.572209694392157L144.40534755706977,16.485807670515946L144.96827121203557,16.61101046494801L147.37924835007163,14.78634765658066L147.78862908282662,15.317644868206258L145.6738090527127,16.955081387741103L146.09304359793845,17.59107365439212L148.2791716574832,16.03609748236751L148.64800296900117,16.568987012410226L145.94454751784303,18.65863654030459L146.31214936791196,19.20105103810183L146.57761454760498,19.139132543250454L149.1434663664852,17.262055184143428L150.3545049243026,19.028827010882324L147.56496550695726,21.020188555764214L148.05553063775488,21.738642006316425L150.79468184400412,19.726660235647685L151.2028742715982,20.28967030239521L148.46617939636394,22.32069580805291L149.57397758583215,23.932048399730128L149.80260514885805,23.98275354301422L152.35494206752017,21.915261597588668L152.59708402695162,21.954854156659934L152.6635109339828,22.16739145372177L149.88133141986614,24.246048813940053L150.69406921101213,25.427592685702223L150.93990292364418,25.457670396664085L153.1887757588663,23.816930740584947L153.52568320612676,24.29905396340965L151.16993232181804,26.185692321449245L151.71562494006292,26.00789713663449L151.89022250870542,26.242614492785705L151.59780056522777,26.6900055326807L153.93391387042604,24.895365229795026L154.24134193560505,25.42666753316764L152.0232341777207,27.27204301776915L152.1363647304694,27.460775138960454L152.72870656195542,27.04344260602893L154.15385167859048,29.086121963250395L155.93341529392262,28.141812388155447L156.4031444524083,28.78727019156086L154.95316009927396,30.31998532341424L155.07490262800326,30.50871215641566L155.51490296733826,30.342032726057795L155.84198601702346,30.757530400144457L155.51511502327872,31.08121531709413Z" class="zip z94111"> </path> <path d="M111.88575583589001,50.62950460031408L112.62057964598698,55.05514153443853L90.31380319800891,58.71382156295841L89.84127136364472,55.73951558141161L88.94741623057504,55.89788893886001L88.67375018701529,54.138684595381136L88.77342945717591,53.80401890909765L89.73980112920634,53.65994297093774L89.62230301587412,51.75802323337636L87.23712167836109,52.19196442335756L87.1671784941853,51.74462731680036L87.53037564468997,49.976090822769166L89.24909865484732,49.84651451044925L86.98031380906782,35.3207634931157L88.68042226634276,35.054774307758336L88.53087578371203,33.58905623114856L94.55181710370323,32.586543161549585L94.31985748628361,31.065295015397183L95.35733229477272,30.89898219396254L95.59791095741087,32.41388531700801L108.72360608185,30.24456705987994Z" class="zip z94115"> </path> <path d="M67.82731688031429,96.9272806580473L70.1740758767082,99.38382203740154L71.1693526879467,101.56849163898525L73.39555854034964,104.45954113240836L73.40629522498472,105.26058936701273L72.81317613836777,105.9091074407153L73.41424709178602,106.84364544361885L70.87328023271962,109.22507191531922L70.128232360601,108.45859698981047L67.31017076140574,111.34424218694312L62.222454034707035,111.9112061782584L61.268828347984666,114.94040419210478L58.00656353057161,115.14170081309666L58.315786766617926,121.04579771877006L45.428450387554946,121.67731624104611L43.66224430584623,121.25738289516958L39.61921687243881,122.37447858368162L36.36707223333532,121.8597913433544L34.920188889599046,120.51836283506196L34.10073750801281,120.76202823290078L33.283331340965134,121.54817827256743L34.02666051271092,122.7542706419243L34.520082744231644,124.22507099207608L33.23420148886403,124.68886558826438L33.34841882078956,126.5606970344873L33.022331360501866,126.67307126504818L31.67642901492536,126.75928162809653L30.682787553990778,126.30009096604218L30.24441950550684,126.83430538774127L25.755351980570097,126.92111118007548L24.11962539762429,126.396299228359L21.526499362225834,124.82056492575994L20.130609191215115,124.40535243798784L14.228343409145651,124.28902523999358L12.903974246067321,123.7246872151226L12.055936801724044,124.20610516718551L12.553126930823595,122.67745096226685L12.250033079929992,117.9422853502537L12.481242458579175,116.68303941107123L11.434553570501222,110.05321839557098L11.694369771033791,108.4513759694888L10.824576768317826,104.75940467138784L10.800279010647216,103.14936225399968L10.41070577643869,101.52469558588112L11.422650134588267,101.83179882715827L12.178158663463734,102.79217777308719L12.853377858559838,102.81501733067239L12.560957584873208,99.85960481941387L55.62537622646117,97.390511780388L58.456555176015875,97.43649942777816L58.647035786340794,97.71736478323129L59.633768715443864,97.04374943868716L58.94312712001744,96.01709079582739L59.53453044306571,94.02669479772803L61.0099857424825,94.73334451113253L61.723489314546484,96.7609112780548L62.046787134145646,97.0751502508776Z" class="zip z94116"> </path> <path d="M110.83519948845966,70.32083671727192L109.6942494673539,69.16119019506334L109.78139787923355,70.62052819102932L100.5653730033107,71.28700280836392L100.7554619915498,74.04389985619481L98.64905544209952,74.18625838577937L98.76694551636669,74.96987792074023L98.17550271640764,74.87141278881222L97.05153390312722,75.18683738847172L94.92253917523554,77.18183674636443L92.20989627892018,77.09552055065345L92.43610067907724,77.31606349927695L92.4788561107988,78.4375365499817L92.80210144284533,79.08955688632419L92.71209475346899,80.04285653152749L91.77868319602341,80.29324269315181L89.90150503930519,82.63401250453379L88.07162346734404,82.76673865524381L88.4513100240327,83.81693012535047L87.63285759549117,86.10085821050657L87.23669628117734,86.69081721169809L87.0288186073228,86.84303291573931L86.4657941849311,86.1401648842824L82.24020082051291,86.44335928364939L82.4647755594842,87.84407320522043L80.51159641714878,88.62064705230816L80.43663638742018,88.45882535410682L81.88439894356472,87.6011828489925L81.16654557240278,83.10398267883096L79.70440939165465,83.04159988138322L77.40275603287137,85.1758050321288L77.07797377276322,79.10360561954094L75.95018318524095,79.50765449601766L75.79100826416422,77.77225967645124L74.81089344847526,77.91621468494486L74.64848396974571,78.14139319208542L74.52879494542142,76.12207796003851L75.68829199505672,76.31606284621279L80.4695240246538,75.50729776322812L78.38161397415958,62.19650503181235L80.62438304314233,61.835660779513915L80.20865044483986,58.835956505857666L87.99410498673006,57.56791317272187L88.22235300266357,59.06696448510324L108.74284439428149,55.69084324612945L109.22192422202562,59.39949677300877L109.45917144472293,59.810355401128064L109.24643072469364,60.162474880342494Z" class="zip z94117"> </path> <path d="M90.31380319800891,58.71382156295841L88.22235300266357,59.06696448510324L87.99410498673006,57.56791317272187L80.20865044483986,58.835956505857666L80.62438304314233,61.835660779513915L64.59642957764328,64.34305722380735L64.64740390693066,65.70089293553566L65.99495130465249,65.79513392468812L69.28596676411948,66.91812751061062L72.88091427611788,67.65411704298947L72.44523760816998,68.61360058658612L71.71464875656508,69.11295007456515L69.52834361522619,69.31819842098392L66.25469183075093,70.31283339328837L63.27774667138263,72.9080292597944L60.757872190809024,71.24912861408312L58.536101296867095,70.98938818299978L57.62114517549895,71.21730445281688L57.00731952180665,71.66428076274151L56.63071668722104,72.27159571574876L56.217939061817376,73.78779720790646L56.03746130435397,73.29279263637406L56.2497125923548,71.95255032662102L57.69533654046634,70.46388738110637L57.72139555599293,70.03244791161595L54.59301274951763,70.51448467258298L53.07989303798098,69.62372862885752L51.97095311516239,69.36292810262252L51.81371852439018,69.1074511783068L51.89283483935718,68.40321372585329L52.28530850947806,68.00689167109903L54.312831384409975,68.10008478352609L54.88964387372904,67.85772466245393L52.90436458827678,67.03014325089401L50.66508424986279,67.4142510761005L48.2679349397921,68.54057092570748L47.96472792656198,67.75043798357301L48.159623428219376,66.76551404502568L48.9481491670693,66.16800186013566L53.594909501838174,65.7377741289949L56.578872541827195,66.03927969097197L57.1569296396037,65.74297733538066L57.41295068979805,65.2482161457229L57.42429099591871,64.75173320965972L52.605515882020555,65.06621656239881L51.434948697731,42.733010768657934L53.30226723332399,42.7483996795835L55.468523527039835,42.387993188652224L56.24229497111463,43.620930797700304L56.450639624619,42.57096459313986L57.366793545074714,41.99884648429182L61.44097457330514,41.4950223365101L84.96680171642112,35.397867804011725L84.91631945578087,35.661165751436585L86.98031380906782,35.3207634931157L89.24909865484732,49.84651451044925L87.53037564468997,49.976090822769166L87.1671784941853,51.74462731680036L87.23712167836109,52.19196442335756L89.62230301587412,51.75802323337636L89.73980112920634,53.65994297093774L88.77342945717591,53.80401890909765L88.67375018701529,54.138684595381136L88.94741623057504,55.89788893886001L89.84127136364472,55.73951558141161Z" class="zip z94118"> </path> <path d="M3.5192804272589484,56.751406130283684L3.5756684377028307,56.91643104903383L2.933856666823644,56.947503410457685L1.635904975921619,56.5956171688325L3.0238267148281324,55.52474810075198L3.40828652141316,55.8772816475866L3.2961244354656856,56.154757746983925ZM0.9192979792369869,52.873584572041224L1.2683139514969355,53.00877514433806L1.2838572522610718,53.43390048089198L1.6279755853667979,53.55163639978617L1.708734033720674,53.92448329046779L1.1789460152776314,53.83034920819868L0.8436931759470099,53.46199703611438ZM41.46188924984152,38.63885037125254L41.626224082367386,39.20207476999222L41.45980051869195,39.885624776029815L40.70200789622268,40.6813867800609L40.76269934403943,41.79337533465716L42.593282004312144,41.574148014060185L42.82404986527693,42.07713911726857L43.1153205174335,42.18837214277899L45.56168516930728,42.1249628548786L47.52205660025761,42.71154729491961L48.32859600665951,42.53757348927795L50.066636070514036,42.873350700993136L51.434948697731,42.733010768657934L52.605515882020555,65.06621656239881L9.164344314660056,67.58617286302722L8.63586565412345,67.33979608312951L8.728831914940812,67.83637554939654L6.329775637436541,67.98630348885999L6.44400163816276,63.13890375604976L6.639544844006323,61.844734796591645L6.49728648151941,61.47500310846594L6.4369129081074306,57.874205237053395L5.363512816952948,56.71201957017031L5.091802070673566,56.71174804534768L4.990522412850666,54.71934370141868L4.310981107120554,54.38238080705144L4.363002270879647,54.00015210704041L4.959449905506929,53.82785213802805L5.23200991796071,52.97156138968024L4.546788610096186,52.17934654367646L4.593786803666006,51.90021753221192L5.200061818922848,51.72475375214642L5.151215442510704,51.39476935154203L5.795371316496684,51.44775728790069L5.704960535605466,50.879797470743625L6.15901450424974,50.471001495292995L5.990940197502766,50.11551951276278L6.197765571459058,49.8254448163798L6.081379719696102,49.41608239447943L6.844931695142549,49.31056007167973L6.949069796602998,48.42713323163822L7.415545139161566,47.87399776682683L7.091391496550429,47.46760485164698L7.766057523331057,47.72840792634342L8.147309324324752,47.57650207606485L8.368031950698608,46.89146608780998L8.639579817572184,47.0360766827887L8.7174892413327,46.56186982055105L9.350402947624275,46.7734501737887L10.686001714552077,46.23065372388153L11.529229857227762,45.043368601204676L12.682887276994904,44.4686525841081L14.18457026895075,42.41270901557732L15.038282067131775,41.79010569637704L15.269680907703304,41.47307150917429L15.184205626382877,40.84326047882609L15.529732482892669,40.738884744610466L16.716741464224313,41.28086449770747L17.640175234775427,41.02313764288985L18.274335309096188,41.19977377736889L19.087145256367805,40.92290247908076L21.84464405107785,40.701640538930945L22.599763982471032,40.308900628677705L22.876233966876285,40.45030989029803L23.03879976626807,40.09671864069803L23.292032594755312,40.09693285746236L23.857009626372246,40.68589974676124L24.663317991166707,40.815058809466294L24.986308615285765,41.192849926156526L25.52843911845133,41.18060898731397L26.057618750897007,41.969400476219946L27.188360787824493,42.23998242630584L28.99118312709787,41.416592485256594L29.312424156736682,40.92035814010126L30.18324335980185,41.87595547927964L31.441277789384728,41.288446445656945L31.836929392777975,41.52510053290365L32.43939733735982,41.381217082409556L33.144113843943416,40.95030091709912L34.95268602922832,38.92604813152617L37.194795263906414,39.04507803264174L38.592694410205084,38.74628709109313L40.054333792435585,36.94377916123754L40.953878065445934,37.3314464867785Z" class="zip z94121"> </path> <path d="M113.21039750064084,10.223605401140041L114.3839654604101,11.751226920022013L114.41218497642089,12.477721893002176L114.22043154504654,12.931370925761087L116.72563888076274,28.949253410119287L95.59791095741087,32.41388531700801L95.35733229477272,30.89898219396254L94.31985748628361,31.065295015397183L94.55181710370323,32.586543161549585L88.53087578371203,33.58905623114856L86.83503474719672,19.748709721504838L85.95753350339358,19.567612127384066L85.36280462017154,19.11852420923117L84.87754580329894,18.420430083864687L84.68480875386251,17.716082821230223L85.03684762862753,16.039550223360628L86.10145102888075,15.189663241609814L86.3056599093262,14.564751390663773L86.01377646274045,12.543805359461153L86.21081138713228,11.252674973096184L87.4720185034823,10.334627613323661L91.88413998330722,9.90756649841213L95.09069019748097,9.158062582421081L95.76177080060371,8.853659152698263L96.37025445560921,8.170129241026842L96.44024974305644,8.420768877112579L95.93374829908424,9.196323275414926L95.20494345553308,9.332574115485329L94.76120387506616,9.694131849137761L94.602726458011,9.44188426373833L93.85549667361454,9.525776780731583L93.45481683340168,9.679543829145771L93.48054726311588,9.998382281365906L93.1437921519776,10.069679908847831L93.07013136883603,9.757174440145292L92.75182233026223,9.784061073704834L91.91112293295097,10.118542000420675L91.96023074663762,10.316833349840962L87.25525035757764,11.911275617577047L87.48957298192582,13.313572050649931L87.60993362597236,13.591197722981292L93.36929465696562,12.631496251289072L93.23679074470645,11.706691842636126L91.45593817180433,11.899759754553884L93.34377759019985,11.44181779196336L93.40045261716011,10.862857864903326L93.60679984823436,11.36098431201377L101.56714322849793,10.111112871828368L101.80413698797464,11.25323942304297L103.55545952314624,11.10759597310269L104.03690303498202,13.168183215359015L105.48590969089989,13.076395746553459L105.6113096617025,12.77820225511423L106.02918941701942,12.629154560727613L105.47547836547925,8.62543396758781L105.84048354269063,8.584243063040574L106.19291106693316,10.670183294185179L106.98930379897696,10.543389983174677L106.5312598949388,7.797566648170502L107.04619871970795,7.715149762454416L107.46493060020394,10.434000293128527L108.31785268706643,10.310377403583374L107.92613987640517,7.577257115953202L108.46688619260877,7.480561005914161L108.80459734749338,9.675941547153073L110.077829570377,9.441316454378793L110.92832491508078,8.883047322515942L112.39321001760058,9.270217030809498L111.74193383970986,8.435804836650021L111.15080211072934,8.496028154482644L111.11272378581478,8.289814750250208L111.71614664720187,8.199454343253372L112.57878329176668,9.268645916490854L112.75084137909396,9.224245236877877L112.63915138065221,7.409589559854112L113.18982301096852,6.007405283784912L114.29100014521842,5.119194462792024L115.5260639622695,5.089131082147098L115.70547203125845,5.346110118657435L115.54938579486034,5.588794763157722L115.11682517292567,5.247730664094625L114.42493744808786,5.34603408977425L113.76989584572252,5.733029843197301L113.16766226423017,6.537204356277755L112.84678832437858,8.1012021751919Z" class="zip z94123"></path><path d="M156.05451503430766,165.43752686126228L153.75512358775097,167.67791833506237L151.34551153346243,167.50882203693857L136.40943862039785,167.8098253648413L135.38181868630687,167.4213232416693L132.93042985031093,167.59923479893575L133.23430408885932,166.6554043413065L130.55528626429862,167.1441871413409L128.61947671403053,166.42575446642988L128.19620725715262,167.59640896680745L123.23308840027663,167.60449769733282L120.64014789344215,168.38808957475743L120.14298313306838,167.63621388031277L113.54066992346615,167.59150851794075L113.12095916308296,168.47341640867592L112.34815923546415,167.99273016420753L112.41957534467834,167.51052477818658L112.05284025113434,167.61042610309914L111.97431316006575,164.89163601433648L113.41668391436997,163.40387500532734L109.65746124902753,161.4302790340177L104.09431183701602,159.97816676007244L107.21814421074698,154.40620555374258L110.72863891861495,155.32343295229617L112.02552394265842,156.02466089856543L113.57135459884294,151.64046443879303L114.12257060869607,152.08147266666913L114.74880381556987,153.25690385732997L115.57442780223303,153.72171523679583L116.56743539053163,153.52031536273785L117.96775829299719,152.42270624756077L116.94528025662173,151.48838159369566L116.65861515565489,150.79836213182702L116.71772169415301,149.8038033716392L116.48518860828332,149.3786850216366L114.2679895651571,148.69013888806734L115.59577041981882,145.97143361509907L114.56103750871233,145.45109132596264L115.50978287104068,143.44140357033183L117.48086719120492,142.74514451849848L116.64310754277436,140.14053102877116L115.90124331778925,139.5710406086697L117.13535084210925,137.5439052765553L116.44895025903918,135.16612599864192L113.61435745250454,135.3642349941902L113.60214058438501,134.16663545914915L116.47730332231147,133.97011489882422L117.43444192320602,134.3286426818063L120.27884441233324,134.19389015584866L120.5249026372985,133.9480288875244L120.63932535707734,133.3182995635978L120.79190335167453,130.9024827755228L119.84830428289796,131.1324716429934L120.33794697568344,130.72323393401302L120.1534204797115,130.12998351971945L125.62303095052181,129.97449204969973L128.509102886637,129.06704704234323L133.75193378193643,125.34694269481223L135.17747470306756,123.21173317130169L135.50936993885824,121.06553400199778L136.97807972173302,120.48479699801213L137.61579474541173,124.28054795521943L139.53534610088897,127.50824154981794L143.029536043261,136.61100240763997L144.07005501883032,141.45672235825685L146.6062069228289,149.18746589938021L147.40303362356084,152.577052789648L147.60287174049566,154.8706865306631L148.05353047966378,156.20935845191693L149.94624810630143,157.03534316993944L149.89958537067488,157.44142713988992L152.10143715425724,159.19365637907464L154.18966211385467,159.19627271973874L156.425714303487,159.75081356398297L156.74978911141204,161.23700754702315L157.39224375034368,161.57468012885917L159.4410454782988,161.3027982805842L160.40050586793183,160.1540626156733L160.78241044466802,161.46415580050973L162.39384407171798,163.27983419614327L161.9643531915208,163.22763642605705L159.48379501897097,164.14370757719283L156.77657604689,164.41578775146343L155.74064960878394,165.2250641489988Z" class="zip z94134"></path><text x="30" y="190">San Francisco, CA</text></svg>
